<svg xmlns="http://www.w3.org/2000/svg" xmlns:xlink="http://www.w3.org/1999/xlink" version="1.1" id="Layer_1" x="0px" y="0px" enable-background="new 0 0 1000 500" xml:space="preserve" viewBox="30.89 221.88 941.34 38.19">

<path fill="#DCEEE3" opacity="1.000000" stroke="none" d=" M418.424866,247.560883   C417.402618,250.609299 416.896851,253.500381 415.520020,255.889435   C412.345093,261.398438 405.313141,261.404297 402.168030,255.861740   C400.434906,252.807449 399.538757,249.278214 397.409180,246.090439   C397.409180,250.510223 397.409180,254.930023 397.409180,259.651428   C393.669525,259.651428 390.441101,259.651428 387.000671,259.651428   C387.000671,249.554764 387.000671,239.593979 387.000671,229.379959   C389.024017,229.170593 390.938660,228.972473 393.084717,228.750427   C393.286194,226.697815 393.474915,224.775345 393.658783,222.902283   C401.939331,222.166199 404.265625,224.711960 408.659027,239.482254   C411.897675,231.977783 412.172638,222.264923 423.739929,222.438431   C423.978455,224.531479 424.214081,226.599197 424.465942,228.809341   C426.512756,228.969635 428.449982,229.121323 430.670349,229.295197   C430.670349,239.437378 430.670349,249.344360 430.670349,259.606293   C427.349548,259.606293 424.126373,259.606293 420.283508,259.606293   C420.283508,254.530365 420.283508,249.541992 420.283508,244.553635   C419.960266,244.525574 419.637024,244.497498 419.313751,244.469437   C419.057739,245.371475 418.801727,246.273514 418.424866,247.560883  M422.144958,231.757690   C422.144958,240.367935 422.144958,248.978165 422.144958,257.775085   C424.649567,257.775085 426.573517,257.775085 428.717957,257.775085   C428.717957,248.927582 428.717957,240.196243 428.717957,231.325821   C426.371735,231.172760 424.253326,231.034561 422.128265,230.024872   C422.128265,228.308182 422.128265,226.591507 422.128265,224.013245   C409.679718,228.947830 412.898438,240.949142 408.683777,249.398941   C407.035980,243.031967 405.778656,237.054199 403.889862,231.283142   C402.701965,227.653488 400.494965,224.434875 395.574097,225.075302   C395.455658,227.102646 395.350677,228.899445 395.233795,230.900589   C393.177643,231.048706 391.243591,231.188049 389.093445,231.342941   C389.093445,240.253235 389.093445,248.957214 389.093445,257.643799   C391.275818,257.643799 393.172485,257.643799 395.589966,257.643799   C395.589966,248.810959 395.589966,240.290878 395.589966,231.770798   C397.518341,233.429184 398.513092,235.264542 399.027405,237.225876   C400.331696,242.200058 400.951416,247.412994 402.795990,252.160934   C403.702484,254.494308 406.701355,257.458008 408.785034,257.482910   C410.847717,257.507568 413.856079,254.575745 414.835236,252.258545   C416.553497,248.192276 416.779572,243.522842 418.130341,239.264542   C419.073151,236.292419 420.849365,233.584671 422.144958,231.757690  z" data-index="1" style="opacity: 1; visibility: visible; fill: rgb(255, 255, 255);"/>
<path fill="#DEF5E8" opacity="1.000000" stroke="none" d=" M66.549515,254.970673   C66.469414,256.713989 66.389282,258.020691 66.290749,259.627563   C62.867977,259.627563 59.664108,259.627563 56.487652,259.627563   C54.960442,249.828949 54.960411,249.826401 44.662865,249.956573   C43.680634,249.968994 42.699139,250.038971 41.266087,250.102112   C41.125179,253.253555 40.988010,256.321411 40.838852,259.657471   C37.518494,259.657471 34.425972,259.657471 30.886320,259.657471   C30.886320,247.497437 30.886320,235.310577 30.886320,222.690826   C34.009315,222.690826 37.202274,222.690826 40.857147,222.690826   C40.857147,227.955627 40.857147,233.203644 40.857147,239.185974   C45.183533,239.185974 49.112988,239.460693 52.958778,239.014420   C54.076302,238.884735 55.686550,236.758957 55.806335,235.433884   C56.178226,231.319992 55.942444,227.151184 55.942444,222.635651   C59.455696,222.635651 62.672050,222.635651 67.327866,222.635651   C66.409027,229.682358 65.493370,236.443527 64.681465,243.217117   C64.561798,244.215546 64.906448,245.277634 65.083595,246.302078   C65.558502,249.048447 66.059090,251.790375 66.549515,254.970673  M64.568626,254.485001   C63.796936,251.114197 63.025246,247.743393 62.072365,243.581131   C66.735283,238.751862 63.826225,231.612244 64.613495,224.672348   C62.139553,224.672348 60.251480,224.672348 57.918732,224.672348   C57.918732,228.677429 57.960060,232.459534 57.905998,236.240265   C57.860592,239.415329 56.325047,241.179611 52.995705,241.148285   C49.713268,241.117401 46.430313,241.141571 42.878822,241.141571   C42.878822,243.586639 42.878822,245.634857 42.878822,247.981125   C46.989193,247.981125 50.875023,247.470871 54.568031,248.097321   C60.530769,249.108810 56.429684,254.925537 58.727669,258.123047   C60.560917,256.921814 64.332672,260.271606 64.568626,254.485001  M32.414177,233.606827   C32.414177,241.673645 32.414177,249.740463 32.414177,257.658020   C35.085205,257.658020 36.983295,257.658020 38.722126,257.658020   C38.722126,246.420227 38.722126,235.516022 38.722126,224.348740   C36.459553,224.451584 34.570168,224.537460 32.414188,224.635468   C32.414188,227.691177 32.414188,230.169373 32.414177,233.606827  z" data-index="2" style="opacity: 1; visibility: visible; fill: rgb(255, 255, 255);"/>
<path fill="#DEF5E8" opacity="1.000000" stroke="none" d=" M230.815002,259.631500   C228.890961,258.890015 227.374207,258.249695 226.492996,257.877686   C220.946716,261.705170 215.187271,259.181610 209.447723,259.976562   C209.447723,256.338867 209.447723,253.246811 209.447723,249.484268   C213.136337,249.484268 216.851013,249.484268 220.864075,249.484268   C220.864075,243.765717 220.864075,238.703552 220.864075,233.070816   C217.069031,233.070816 213.343658,233.070816 209.384613,233.070816   C209.384613,229.404968 209.384613,226.299606 209.384613,222.726196   C220.751419,222.726196 232.077179,222.726196 243.659668,222.726196   C243.659668,226.024826 243.659668,229.131744 243.659668,232.820496   C239.986359,232.820496 236.269882,232.820496 232.235901,232.820496   C232.235901,238.443405 232.235901,243.491257 232.235901,249.097351   C235.929535,249.097351 239.505951,249.097351 243.492676,249.097351   C243.492676,252.839340 243.492676,256.039398 243.492676,259.732697   C239.401505,259.732697 235.311905,259.732697 230.815002,259.631500  M223.637665,250.850571   C227.372086,257.826843 232.126801,259.516876 241.959229,257.267883   C241.865219,255.373001 241.769882,253.451630 241.660416,251.245132   C239.418732,251.245132 237.592636,251.089813 235.801819,251.275314   C231.116669,251.760666 229.510818,249.602448 229.847977,245.125381   C230.104858,241.714355 229.899002,238.268494 229.899002,234.867920   C227.332489,234.867920 225.414703,234.867920 223.052017,234.867920   C223.052017,240.456955 223.052017,245.725327 222.153870,251.216522   C218.589508,251.216522 215.025162,251.216522 211.356186,251.216522   C211.356186,253.746246 211.356186,255.643372 211.356186,257.611542   C215.377945,257.611542 219.182816,257.611542 222.893463,257.611542   C222.893463,255.110977 222.893463,252.978836 223.637665,250.850571  M214.886780,224.387878   C208.939850,223.936905 211.719849,228.044846 211.157639,230.728500   C221.671585,230.728500 231.722977,230.728500 241.975861,230.728500   C241.862366,228.479187 241.766464,226.578339 241.655914,224.387634   C232.745636,224.387634 224.279526,224.387634 214.886780,224.387878  z" data-index="3" style="opacity: 1; visibility: visible; fill: rgb(255, 255, 255);"/>
<path fill="#DEF5E8" opacity="1.000000" stroke="none" d=" M597.611755,222.269165   C607.613159,223.480072 611.472656,228.067856 610.970215,237.614212   C610.553467,245.530640 605.452881,249.896973 596.530579,249.947586   C592.565125,249.970093 588.599365,249.951385 584.301025,249.951385   C584.127136,253.354340 583.970459,256.420380 583.802673,259.703217   C580.404297,259.703217 577.300964,259.703217 573.819702,259.703217   C573.819702,249.586304 573.819702,239.537903 573.819702,229.313721   C575.808533,229.152618 577.600281,229.007492 579.747681,228.833542   C579.959473,226.936981 580.173523,225.020416 580.481201,222.265167   C585.990845,222.265167 591.575073,222.265167 597.611755,222.269165  M582.538696,230.984955   C587.528687,231.006287 592.519958,231.107376 597.508179,231.022812   C601.269714,230.959045 602.383484,232.913223 602.356323,236.340088   C602.330261,239.626572 601.127563,241.308624 597.646301,241.198380   C593.731140,241.074402 589.808960,241.169876 585.848389,241.169876   C585.848389,243.755829 585.848389,245.677155 585.848389,247.923782   C589.424622,247.923782 592.721802,247.928223 596.018982,247.921387   C597.183044,247.918976 598.356079,247.975540 599.509705,247.857025   C605.287476,247.263458 608.799072,243.220444 608.981750,237.019791   C609.194336,229.803864 606.269592,225.246964 600.194397,224.730652   C594.300537,224.229767 588.330872,224.621994 582.447083,224.621994   C582.171326,226.945618 581.939331,228.900589 580.951843,231.082153   C579.211914,231.082153 577.471985,231.082153 575.770020,231.082153   C575.770020,240.437698 575.770020,249.109024 575.770020,257.693848   C578.028015,257.693848 579.925659,257.693848 581.579285,257.693848   C581.579285,248.506653 581.579285,239.617294 582.538696,230.984955  M594.340332,233.067276   C590.953674,233.067276 587.567017,233.067276 583.977478,233.067276   C584.101379,235.574707 584.187012,237.308014 584.283569,239.263077   C588.249695,239.263077 591.715698,239.389099 595.166626,239.215027   C597.184509,239.113251 600.121155,240.427826 600.312500,236.509491   C600.508118,232.505402 597.737183,233.078110 594.340332,233.067276  z" data-index="4" style="opacity: 1; visibility: visible; fill: rgb(255, 255, 255);"/>
<path fill="#DEF5E8" opacity="1.000000" stroke="none" d=" M756.428772,255.482697   C755.384888,251.883850 754.155396,248.594711 753.900696,245.231750   C753.512512,240.107544 753.799011,234.932251 753.799011,229.450500   C755.938110,229.203979 757.829590,228.985977 760.090515,228.725418   C760.282837,226.821671 760.475952,224.910065 760.679382,222.896744   C768.088989,222.896744 775.364929,222.432739 782.545288,223.060837   C787.284546,223.475418 790.843323,228.428833 791.009399,233.470627   C791.217468,239.786896 791.059509,246.115204 791.059509,252.741440   C789.020508,252.936005 787.107666,253.118546 784.866638,253.332397   C784.616333,255.406036 784.367310,257.468597 784.081909,259.832916   C777.440918,259.832916 770.945740,260.225708 764.538330,259.647278   C761.823914,259.402222 759.293701,257.117218 756.428772,255.482697  M782.948792,251.997452   C782.950256,251.823257 782.951721,251.649063 783.834167,251.190552   C785.453491,251.190552 787.072754,251.190552 789.019165,251.190552   C789.019165,244.856613 789.298279,238.902130 788.924255,232.988953   C788.660339,228.816895 785.943176,225.473679 781.834473,225.083511   C775.520752,224.483917 769.108032,224.925873 762.636108,224.925873   C762.435730,227.154419 762.259644,229.113113 761.178955,231.111954   C759.556213,231.111954 757.933411,231.111954 755.935547,231.111954   C755.935547,237.446777 755.637878,243.413269 756.027588,249.334518   C756.352661,254.273941 759.735352,257.341187 764.471924,257.743317   C770.370117,258.244049 776.343079,257.863495 782.302185,257.863495   C782.472412,255.760071 782.605347,254.117905 782.948792,251.997452  z" data-index="5" style="opacity: 1; visibility: visible; fill: rgb(255, 255, 255);"/>
<path fill="#DEF5E8" opacity="1.000000" stroke="none" d=" M969.382202,222.296692   C970.563416,225.618439 971.308289,228.916641 972.223083,232.967499   C966.888245,232.967499 962.666687,232.967499 958.048584,232.967499   C958.048584,242.106430 958.048584,250.691544 958.048584,259.610596   C954.418884,259.610596 951.208374,259.610596 947.415894,259.610596   C947.415894,252.485870 947.171997,245.516556 947.503967,238.574783   C947.715637,234.149139 946.244995,232.478989 941.840820,233.014664   C939.421448,233.308945 936.936890,233.067337 934.235535,233.067337   C934.235535,229.359421 934.235535,226.120743 934.235535,221.879059   C940.826233,222.432144 947.116577,222.960022 954.131897,223.548737   C957.974121,220.221542 963.746094,223.140045 969.382202,222.296692  M955.496643,231.120941   C951.667358,224.541901 945.624329,222.676331 936.302246,225.133698   C936.302246,227.062561 936.302246,228.957428 936.302246,231.045990   C938.596252,231.045990 940.571045,231.039993 942.545837,231.047089   C948.911072,231.069962 949.374268,231.505966 949.398132,237.773300   C949.423218,244.376831 949.403748,250.980530 949.403748,257.776794   C951.766479,257.776794 953.677063,257.776794 956.090088,257.776794   C956.090088,248.743591 956.090088,239.841644 956.977295,231.020508   C961.049500,231.020508 965.121704,231.020508 969.127869,231.020508   C969.127869,228.521408 969.127869,226.625763 969.127869,224.603165   C964.698242,224.603165 960.619263,224.603165 956.242126,224.603165   C956.242126,226.907684 956.242126,229.001862 955.496643,231.120941  z" data-index="6" style="opacity: 1; visibility: visible; fill: rgb(255, 255, 255);"/>
<path fill="#1A1A1A" opacity="1.000000" stroke="none" d=" M422.253326,230.758835   C420.849365,233.584671 419.073151,236.292419 418.130341,239.264542   C416.779572,243.522842 416.553497,248.192276 414.835236,252.258545   C413.856079,254.575745 410.847717,257.507568 408.785034,257.482910   C406.701355,257.458008 403.702484,254.494308 402.795990,252.160934   C400.951416,247.412994 400.331696,242.200058 399.027405,237.225876   C398.513092,235.264542 397.518341,233.429184 395.589966,231.770798   C395.589966,240.290878 395.589966,248.810959 395.589966,257.643799   C393.172485,257.643799 391.275818,257.643799 389.093445,257.643799   C389.093445,248.957214 389.093445,240.253235 389.093445,231.342941   C391.243591,231.188049 393.177643,231.048706 395.233795,230.900589   C395.350677,228.899445 395.455658,227.102646 395.574097,225.075302   C400.494965,224.434875 402.701965,227.653488 403.889862,231.283142   C405.778656,237.054199 407.035980,243.031967 408.683777,249.398941   C412.898438,240.949142 409.679718,228.947830 422.128265,224.013245   C422.128265,226.591507 422.128265,228.308182 422.164246,230.428864   C422.200226,230.832855 422.253326,230.758835 422.253326,230.758835  z" data-index="7" style="opacity: 1; visibility: visible; fill: rgb(18, 18, 18);"/>
<path fill="#1D1D1D" opacity="1.000000" stroke="none" d=" M422.167542,230.864609   C424.253326,231.034561 426.371735,231.172760 428.717957,231.325821   C428.717957,240.196243 428.717957,248.927582 428.717957,257.775085   C426.573517,257.775085 424.649567,257.775085 422.144958,257.775085   C422.144958,248.978165 422.144958,240.367935 422.199158,231.258270   C422.253326,230.758835 422.200226,230.832855 422.167542,230.864609  z" data-index="8" style="opacity: 1; visibility: visible; fill: rgb(18, 18, 18);"/>
<path fill="#1D1D1D" opacity="1.000000" stroke="none" d=" M64.567734,254.912231   C64.332672,260.271606 60.560917,256.921814 58.727669,258.123047   C56.429684,254.925537 60.530769,249.108810 54.568031,248.097321   C50.875023,247.470871 46.989193,247.981125 42.878822,247.981125   C42.878822,245.634857 42.878822,243.586639 42.878822,241.141571   C46.430313,241.141571 49.713268,241.117401 52.995705,241.148285   C56.325047,241.179611 57.860592,239.415329 57.905998,236.240265   C57.960060,232.459534 57.918732,228.677429 57.918732,224.672348   C60.251480,224.672348 62.139553,224.672348 64.613495,224.672348   C63.826225,231.612244 66.735283,238.751862 62.072365,243.581131   C63.025246,247.743393 63.796936,251.114197 64.567734,254.912231  z" data-index="9" style="opacity: 1; visibility: visible; fill: rgb(18, 18, 18);"/>
<path fill="#212121" opacity="1.000000" stroke="none" d=" M32.414185,233.127197   C32.414188,230.169373 32.414188,227.691177 32.414188,224.635468   C34.570168,224.537460 36.459553,224.451584 38.722126,224.348740   C38.722126,235.516022 38.722126,246.420227 38.722126,257.658020   C36.983295,257.658020 35.085205,257.658020 32.414177,257.658020   C32.414177,249.740463 32.414177,241.673645 32.414185,233.127197  z" data-index="10" style="opacity: 1; visibility: visible; fill: rgb(18, 18, 18);"/>
<path fill="#1D1D1D" opacity="1.000000" stroke="none" d=" M223.052017,250.993683   C223.052017,245.725327 223.052017,240.456955 223.052017,234.867920   C225.414703,234.867920 227.332489,234.867920 229.899002,234.867920   C229.899002,238.268494 230.104858,241.714355 229.847977,245.125381   C229.510818,249.602448 231.116669,251.760666 235.801819,251.275314   C237.592636,251.089813 239.418732,251.245132 241.660416,251.245132   C241.769882,253.451630 241.865219,255.373001 241.959229,257.267883   C232.126801,259.516876 227.372086,257.826843 223.301025,250.889893   C222.964371,250.929230 223.052017,250.993683 223.052017,250.993683  z" data-index="11" style="opacity: 1; visibility: visible; fill: rgb(18, 18, 18);"/>
<path fill="#212121" opacity="1.000000" stroke="none" d=" M215.350098,224.387756   C224.279526,224.387634 232.745636,224.387634 241.655914,224.387634   C241.766464,226.578339 241.862366,228.479187 241.975861,230.728500   C231.722977,230.728500 221.671585,230.728500 211.157639,230.728500   C211.719849,228.044846 208.939850,223.936905 215.350098,224.387756  z" data-index="12" style="opacity: 1; visibility: visible; fill: rgb(18, 18, 18);"/>
<path fill="#1D1D1D" opacity="1.000000" stroke="none" d=" M222.928925,250.887970   C222.893463,252.978836 222.893463,255.110977 222.893463,257.611542   C219.182816,257.611542 215.377945,257.611542 211.356186,257.611542   C211.356186,255.643372 211.356186,253.746246 211.356186,251.216522   C215.025162,251.216522 218.589508,251.216522 222.602936,251.105103   C223.052017,250.993683 222.964371,250.929230 222.928925,250.887970  z" data-index="13" style="opacity: 1; visibility: visible; fill: rgb(18, 18, 18);"/>
<path fill="#1D1D1D" opacity="1.000000" stroke="none" d=" M581.707275,230.855560   C581.939331,228.900589 582.171326,226.945618 582.447083,224.621994   C588.330872,224.621994 594.300537,224.229767 600.194397,224.730652   C606.269592,225.246964 609.194336,229.803864 608.981750,237.019791   C608.799072,243.220444 605.287476,247.263458 599.509705,247.857025   C598.356079,247.975540 597.183044,247.918976 596.018982,247.921387   C592.721802,247.928223 589.424622,247.923782 585.848389,247.923782   C585.848389,245.677155 585.848389,243.755829 585.848389,241.169876   C589.808960,241.169876 593.731140,241.074402 597.646301,241.198380   C601.127563,241.308624 602.330261,239.626572 602.356323,236.340088   C602.383484,232.913223 601.269714,230.959045 597.508179,231.022812   C592.519958,231.107376 587.528687,231.006287 582.088379,230.891006   C581.638000,230.797058 581.707275,230.855560 581.707275,230.855560  z" data-index="14" style="opacity: 1; visibility: visible; fill: rgb(18, 18, 18);"/>
<path fill="#212121" opacity="1.000000" stroke="none" d=" M581.608643,230.762482   C581.579285,239.617294 581.579285,248.506653 581.579285,257.693848   C579.925659,257.693848 578.028015,257.693848 575.770020,257.693848   C575.770020,249.109024 575.770020,240.437698 575.770020,231.082153   C577.471985,231.082153 579.211914,231.082153 581.329590,230.968857   C581.707275,230.855560 581.638000,230.797058 581.608643,230.762482  z" data-index="15" style="opacity: 1; visibility: visible; fill: rgb(18, 18, 18);"/>

<path fill="#1A1A1A" opacity="1.000000" stroke="none" d=" M762.083496,231.071808   C762.259644,229.113113 762.435730,227.154419 762.636108,224.925873   C769.108032,224.925873 775.520752,224.483917 781.834473,225.083511   C785.943176,225.473679 788.660339,228.816895 788.924255,232.988953   C789.298279,238.902130 789.019165,244.856613 789.019165,251.190552   C787.072754,251.190552 785.453491,251.190552 783.300476,250.841827   C782.755188,246.207611 782.762939,241.921951 782.727234,237.636658   C782.678284,231.752823 781.969482,231.030075 776.256287,230.991867   C771.477112,230.959900 766.697876,230.953888 761.959961,230.970139   C762.001282,231.003891 762.083496,231.071808 762.083496,231.071808  z" data-index="17" style="opacity: 1; visibility: visible; fill: rgb(18, 18, 18);"/>
<path fill="#1A1A1A" opacity="1.000000" stroke="none" d=" M782.738220,252.475739   C782.605347,254.117905 782.472412,255.760071 782.302185,257.863495   C776.343079,257.863495 770.370117,258.244049 764.471924,257.743317   C759.735352,257.341187 756.352661,254.273941 756.027588,249.334518   C755.637878,243.413269 755.935547,237.446777 755.935547,231.111954   C757.933411,231.111954 759.556213,231.111954 761.631226,231.091888   C762.083496,231.071808 762.001282,231.003891 762.062500,231.432526   C762.147461,236.163727 762.161133,240.466370 762.197327,244.768829   C762.247742,250.757980 762.773376,251.139114 768.738525,251.361084   C773.412415,251.535019 778.072205,252.090027 782.738220,252.475739  z" data-index="18" style="opacity: 1; visibility: visible; fill: rgb(18, 18, 18);"/>
<path fill="#CFDAD3" opacity="1.000000" stroke="none" d=" M782.843506,252.236603   C778.072205,252.090027 773.412415,251.535019 768.738525,251.361084   C762.773376,251.139114 762.247742,250.757980 762.197327,244.768829   C762.161133,240.466370 762.147461,236.163727 762.021179,231.398773   C766.697876,230.953888 771.477112,230.959900 776.256287,230.991867   C781.969482,231.030075 782.678284,231.752823 782.727234,237.636658   C782.762939,241.921951 782.755188,246.207611 782.859985,250.984009   C782.951721,251.649063 782.950256,251.823257 782.843506,252.236603  M770.573608,233.095490   C768.631409,233.095490 766.689209,233.095490 764.302368,233.095490   C764.302368,237.912979 764.173950,242.204498 764.403564,246.476807   C764.453430,247.404572 765.747864,248.991333 766.535950,249.033829   C771.095886,249.279724 775.675781,249.153900 780.634827,249.153900   C780.634827,246.286087 780.647217,244.152344 780.632751,242.018784   C780.562012,231.561356 781.588806,233.245789 770.573608,233.095490  z" data-index="19" style="opacity: 1; visibility: visible; fill: rgb(255, 255, 255);"/>
<path fill="#1D1D1D" opacity="1.000000" stroke="none" d=" M956.090088,230.939697   C956.090088,239.841644 956.090088,248.743591 956.090088,257.776794   C953.677063,257.776794 951.766479,257.776794 949.403748,257.776794   C949.403748,250.980530 949.423218,244.376831 949.398132,237.773300   C949.374268,231.505966 948.911072,231.069962 942.545837,231.047089   C940.571045,231.039993 938.596252,231.045990 936.302246,231.045990   C936.302246,228.957428 936.302246,227.062561 936.302246,225.133698   C945.624329,222.676331 951.667358,224.541901 955.831909,231.068909   C956.167114,231.016891 956.090088,230.939697 956.090088,230.939697  z" data-index="20" style="opacity: 1; visibility: visible; fill: rgb(18, 18, 18);"/>
<path fill="#212121" opacity="1.000000" stroke="none" d=" M956.204590,231.056458   C956.242126,229.001862 956.242126,226.907684 956.242126,224.603165   C960.619263,224.603165 964.698242,224.603165 969.127869,224.603165   C969.127869,226.625763 969.127869,228.521408 969.127869,231.020508   C965.121704,231.020508 961.049500,231.020508 956.533691,230.980103   C956.090088,230.939697 956.167114,231.016891 956.204590,231.056458  z" data-index="21" style="opacity: 1; visibility: visible; fill: rgb(18, 18, 18);"/>

</svg>