<svg xmlns="http://www.w3.org/2000/svg" xmlns:xlink="http://www.w3.org/1999/xlink" version="1.1" id="Layer_1" x="0px" y="0px" enable-background="new 0 0 905 275" xml:space="preserve" viewBox="28.99 87.95 849.13 109.1">

<path class="hero-path" d=" M577.984985,162.994125   C581.814026,162.994354 585.195801,162.664093 588.453491,163.155716   C589.776367,163.355362 591.807190,165.310425 591.848389,166.523376   C592.142273,175.176239 591.919800,183.844986 592.046570,192.505966   C592.098389,196.042770 589.975586,196.030029 587.453552,196.024612   C570.627747,195.988464 553.801819,196.005875 536.975891,196.005875   C515.985168,196.005890 494.993591,195.909454 474.004425,196.090668   C470.008789,196.125153 468.895782,194.913345 468.913300,190.964355   C469.056671,158.645935 469.058685,126.326294 468.911469,94.007896   C468.893311,90.019905 470.077972,88.899536 474.031708,88.913689   C511.681305,89.048470 549.331726,89.049278 586.981262,88.912827   C590.953247,88.898438 592.218140,90.040474 592.089539,94.023270   C591.815552,102.510674 591.864990,111.016518 592.072937,119.507668   C592.159790,123.051735 590.912781,124.097801 587.450684,124.069275   C570.480835,123.929459 553.509216,124.005859 536.603699,124.005859   C534.972839,127.545235 536.616272,128.045547 539.515442,128.031219   C555.341431,127.953072 571.169556,128.116882 586.993164,127.908447   C590.988220,127.855820 592.237549,129.069519 592.087524,133.036316   C591.804504,140.522293 591.851929,148.031158 592.072937,155.521317   C592.178101,159.084274 590.880676,160.096298 587.436829,160.068375   C570.467163,159.930817 553.495850,160.005844 536.525085,160.005844   C536.314514,160.496078 536.103943,160.986328 535.893372,161.476562   C537.097046,161.982391 538.297058,162.917679 539.504944,162.927917   C552.165161,163.035065 564.826660,162.994095 577.984985,162.994125  M471.198639,159.499908   C471.198639,170.927719 471.198639,182.355515 471.198639,193.647186   C510.911163,193.647186 549.971863,193.647186 588.934204,193.647186   C588.934204,184.013535 588.934204,174.728622 588.934204,164.912964   C570.537537,164.912964 552.321350,164.912964 534.320679,164.912964   C534.320679,162.302612 534.320679,160.232788 534.320679,157.800919   C552.728882,157.800919 570.813904,157.800919 588.816895,157.800919   C588.816895,148.361649 588.816895,139.299698 588.816895,129.871643   C570.429260,129.871643 552.344666,129.871643 534.252075,129.871643   C534.252075,127.086578 534.252075,124.682434 534.252075,121.916763   C552.590515,121.916763 570.675842,121.916763 588.885376,121.916763   C588.885376,111.482544 588.885376,101.422218 588.885376,91.310005   C549.601868,91.310005 510.556824,91.310005 471.198639,91.310005   C471.198639,113.908958 471.198639,136.204422 471.198639,159.499908  z" data-index="0" style="opacity: 1; visibility: visible; fill: rgb(255, 255, 255);"/>
<path class="hero-path" d=" M51.002289,132.138565   C55.332493,120.514534 59.662727,109.301971 63.943642,98.070618   C64.741188,95.978195 64.930908,93.522072 66.163322,91.769890   C67.120537,90.408981 69.257782,89.116745 70.882233,89.102226   C90.877892,88.923470 110.876457,88.913910 130.871552,89.122444   C132.464996,89.139061 134.820282,90.730736 135.503860,92.202469   C146.250885,115.340858 156.754395,138.592194 167.374893,161.789612   C171.718872,171.277786 176.181366,180.712128 180.642746,190.145981   C182.947845,195.020248 182.466751,195.997131 177.310455,196.003738   C157.146576,196.029633 136.982468,195.970505 116.818962,196.060242   C113.696205,196.074142 112.551804,195.405472 111.745804,191.868881   C109.547470,182.222992 106.357933,172.803009 103.226189,162.154877   C100.630592,169.999603 98.324142,176.925003 96.047791,183.860291   C92.059326,196.011810 92.067062,196.014343 79.543037,196.014343   C64.378448,196.014343 49.213844,196.026230 34.049278,196.008026   C28.587107,196.001465 28.123018,195.485855 29.970867,190.353088   C36.915977,171.061752 43.971275,151.810074 51.002289,132.138565  M98.051369,168.441666   C99.696861,163.344482 101.342346,158.247299 103.324257,152.107971   C107.539925,166.874359 111.399765,180.394394 115.185173,193.653717   C136.702103,193.653717 157.725296,193.653717 179.130371,193.653717   C163.235077,159.177917 147.534149,125.123688 131.882248,91.175797   C110.942009,91.175797 90.302025,91.175797 69.443687,91.175797   C56.777893,125.342026 44.139004,159.435669 31.368286,193.884933   C51.475750,193.884933 70.627472,193.884933 90.093193,193.884933   C92.691116,185.666565 95.289330,177.447311 98.051369,168.441666  z" data-index="1" style="opacity: 1; visibility: visible; fill: rgb(255, 255, 255);"/>
<path class="hero-path" d=" M691.187012,144.014801   C685.976868,144.838654 684.546875,142.763031 684.898926,138.173233   C685.280151,133.203110 685.042297,128.180283 684.969055,123.181999   C684.896790,118.258911 681.943909,114.703056 674.711914,113.621468   C671.272095,113.107025 667.258911,115.474670 663.754150,117.079651   C662.971863,117.437874 663.045837,120.075500 663.042969,121.664253   C663.001770,144.661240 662.928284,167.658981 663.095825,190.654831   C663.125366,194.709091 662.153564,196.165222 657.815369,196.114807   C638.153809,195.886276 618.487671,195.937439 598.824524,196.084274   C595.173340,196.111542 593.889038,195.092911 593.911133,191.295486   C594.055237,166.466141 593.965454,141.635513 594.028198,116.805489   C594.032593,115.073906 594.408447,113.252182 595.024475,111.629097   C597.595337,104.855713 602.167114,99.655556 607.434509,94.693016   C612.741272,89.693352 618.577637,88.839813 625.405884,88.886269   C657.900208,89.107353 690.405945,89.420990 722.887756,88.745644   C734.054810,88.513466 740.394043,94.636009 746.927429,101.616272   C751.328491,106.318253 752.516357,111.942863 752.114624,118.321312   C751.675476,125.292763 751.827820,132.320221 752.088928,139.309570   C752.231995,143.139999 750.790649,144.112900 747.158936,144.083618   C728.662476,143.934448 710.164062,144.014801 691.187012,144.014801  M676.500000,91.013138   C659.003052,91.013138 641.505981,90.980858 624.009338,91.052353   C621.717346,91.061707 619.296387,91.223465 617.158997,91.962212   C606.294067,95.717415 596.227112,110.139404 596.219055,121.703522   C596.203308,144.199585 596.213989,166.695694 596.213928,189.191772   C596.213867,190.645340 596.213928,192.098923 596.213928,193.757294   C617.751709,193.757294 638.826172,193.757294 660.256592,193.757294   C660.256592,191.745087 660.256592,189.948380 660.256592,188.151657   C660.256775,165.988846 660.208862,143.825790 660.326965,121.663612   C660.339722,119.286453 660.738098,116.540642 661.974121,114.620018   C664.346558,110.933395 672.600830,109.537170 677.720459,111.364685   C684.708557,113.859177 687.963684,117.769821 687.984863,123.763603   C688.005798,129.701706 687.989380,135.639938 687.989380,141.625671   C708.810425,141.625671 729.055298,141.625671 749.786072,141.625671   C749.786072,135.093597 749.182068,128.734100 749.910950,122.531219   C751.460327,109.345711 744.386047,101.064018 734.621521,94.422287   C731.670593,92.415108 727.586670,91.242973 723.988525,91.162025   C708.499084,90.813553 692.997314,91.013138 676.500000,91.013138  z" data-index="2" style="opacity: 1; visibility: visible; fill: rgb(255, 255, 255);"/>
<path class="hero-path" d=" M342.000000,196.007141   C332.175262,196.007141 322.847900,195.880692 313.527100,196.072388   C310.035950,196.144180 308.917908,194.999695 308.929443,191.491882   C309.036682,158.855606 309.032623,126.218735 308.933929,93.582413   C308.923615,90.171204 309.873138,88.919647 313.451569,88.927742   C357.577362,89.027641 401.705536,88.812225 445.826141,89.301865   C449.779236,89.345726 454.860687,92.852867 457.402466,96.256744   C467.055084,109.183228 470.007996,123.750755 464.233063,139.225876   C461.680786,146.065323 458.372894,152.667938 454.893768,159.099899   C452.701355,163.153015 449.086212,165.173874 443.946960,165.114288   C422.159302,164.861694 400.367065,165.007141 378.007111,165.007141   C378.007111,173.811432 377.816101,182.409500 378.091644,190.992599   C378.220032,194.991196 376.932526,196.189301 372.969879,196.091080   C362.818787,195.839523 352.657318,196.007141 342.000000,196.007141  M410.500000,91.004616   C377.457184,91.004616 344.414398,91.004616 311.407043,91.004616   C311.407043,125.681870 311.407043,159.593155 311.407043,193.749420   C332.657867,193.749420 353.699829,193.749420 375.292267,193.749420   C375.292267,183.337509 375.292267,173.136719 375.292267,162.772125   C397.649017,162.772125 419.456818,162.670532 441.262390,162.844193   C446.652893,162.887131 451.028564,161.227753 453.271240,156.465500   C456.921204,148.714890 460.613098,140.865112 463.045380,132.687775   C466.714752,120.351234 462.934723,109.031303 455.770050,98.812210   C452.015228,93.456665 446.760315,90.780495 439.971039,90.946297   C430.485901,91.177940 420.990814,91.004646 410.500000,91.004616  z" data-index="3" style="opacity: 1; visibility: visible; fill: rgb(255, 255, 255);"/>
<path class="hero-path" d=" M782.008789,193.594788   C781.994812,170.311249 781.994812,147.498108 781.994812,124.007195   C774.812866,124.007195 767.719238,123.785439 760.648438,124.090515   C756.418518,124.273010 754.687439,123.215576 754.889832,118.604706   C755.254578,110.291840 755.113770,101.948875 754.933777,93.623894   C754.860962,90.254265 755.785400,88.915314 759.414246,88.925705   C797.393616,89.034492 835.373535,89.042213 873.352783,88.917770   C877.225098,88.905083 878.164734,90.307816 878.074158,93.891098   C877.863708,102.214653 877.750061,110.558296 878.110657,118.871521   C878.304260,123.334373 876.542053,124.217422 872.585632,124.079834   C865.278748,123.825737 857.956848,124.007195 850.252075,124.007195   C850.165466,125.568680 850.018372,126.997017 850.017334,128.425446   C850.002502,149.247620 849.921265,170.070480 850.084534,190.891373   C850.114746,194.739853 849.164246,196.137970 845.070984,196.095840   C825.750061,195.896988 806.425659,196.055618 787.103516,195.922836   C785.405762,195.911163 783.716125,194.712524 782.008789,193.594788  M784.861267,122.789375   C784.861267,146.390732 784.861267,169.992081 784.861267,193.641937   C806.040588,193.641937 826.728088,193.641937 847.691467,193.641937   C847.691467,169.690323 847.691467,146.089294 847.691467,121.872116   C856.987732,121.872116 866.026184,121.872116 874.919373,121.872116   C874.919373,111.308525 874.919373,101.364258 874.919373,91.264221   C835.675293,91.264221 796.634766,91.264221 757.490723,91.264221   C757.490723,101.582016 757.490723,111.638878 757.490723,122.108719   C766.582275,122.108719 775.385254,122.108719 784.861267,122.789375  z" data-index="4" style="opacity: 1; visibility: visible; fill: rgb(255, 255, 255);"/>
<path class="hero-path" d=" M251.002975,113.000046   C251.002975,129.803787 251.002975,146.107544 251.002975,162.754089   C252.620697,162.841690 254.054642,162.985413 255.488724,162.986893   C271.146545,163.003098 286.805145,163.080444 302.461578,162.932541   C305.940430,162.899704 307.159882,163.979004 307.069397,167.506805   C306.860229,175.663498 306.908356,183.830887 307.051666,191.990433   C307.105316,195.044769 305.984894,196.053238 302.965179,196.047852   C264.653595,195.979492 226.341797,195.979340 188.030197,196.048035   C185.005188,196.053452 183.944122,195.031082 183.950943,191.986557   C184.024857,159.005341 184.023865,126.023827 183.952179,93.042603   C183.945633,90.031654 184.941467,88.934616 188.001190,88.949219   C207.656326,89.043015 227.312302,89.041275 246.967468,88.950531   C249.990860,88.936584 251.124817,89.959221 251.050888,93.012291   C250.893661,99.504791 251.002945,106.003754 251.002975,113.000046  M262.507996,165.001419   C258.073364,165.001419 253.638763,165.001419 248.811035,165.001419   C248.811035,140.014435 248.811035,115.608932 248.811035,91.244728   C227.802734,91.244728 207.208206,91.244728 186.473450,91.244728   C186.473450,125.549065 186.473450,159.609543 186.473450,193.688904   C225.820831,193.688904 264.888428,193.688904 303.791199,193.688904   C303.791199,183.976883 303.791199,174.577637 303.791199,165.001419   C290.138489,165.001419 276.821625,165.001419 262.507996,165.001419  z" data-index="5" style="opacity: 1; stroke-width: 2px; stroke: rgb(255, 255, 255); visibility: visible; fill: rgb(255, 255, 255);"/>
<path class="hero-path" d=" M471.198639,158.999908   C471.198639,136.204422 471.198639,113.908958 471.198639,91.310005   C510.556824,91.310005 549.601868,91.310005 588.885376,91.310005   C588.885376,101.422218 588.885376,111.482544 588.885376,121.916763   C570.675842,121.916763 552.590515,121.916763 534.252075,121.916763   C534.252075,124.682434 534.252075,127.086578 534.252075,129.871643   C552.344666,129.871643 570.429260,129.871643 588.816895,129.871643   C588.816895,139.299698 588.816895,148.361649 588.816895,157.800919   C570.813904,157.800919 552.728882,157.800919 534.320679,157.800919   C534.320679,160.232788 534.320679,162.302612 534.320679,164.912964   C552.321350,164.912964 570.537537,164.912964 588.934204,164.912964   C588.934204,174.728622 588.934204,184.013535 588.934204,193.647186   C549.971863,193.647186 510.911163,193.647186 471.198639,193.647186   C471.198639,182.355515 471.198639,170.927719 471.198639,158.999908  z" data-index="6" style="opacity: 1; visibility: visible; fill: rgb(18, 18, 18);"/>
<path class="hero-path" d=" M97.969452,168.834854   C95.289330,177.447311 92.691116,185.666565 90.093193,193.884933   C70.627472,193.884933 51.475750,193.884933 31.368286,193.884933   C44.139004,159.435669 56.777893,125.342026 69.443687,91.175797   C90.302025,91.175797 110.942009,91.175797 131.882248,91.175797   C147.534149,125.123688 163.235077,159.177917 179.130371,193.653717   C157.725296,193.653717 136.702103,193.653717 115.185173,193.653717   C111.399765,180.394394 107.539925,166.874359 103.324257,152.107971   C101.342346,158.247299 99.696861,163.344482 97.969452,168.834854  z" data-index="7" style="opacity: 1; visibility: visible; fill: rgb(18, 18, 18);"/>
<path class="hero-path" d=" M677.000000,91.013138   C692.997314,91.013138 708.499084,90.813553 723.988525,91.162025   C727.586670,91.242973 731.670593,92.415108 734.621521,94.422287   C744.386047,101.064018 751.460327,109.345711 749.910950,122.531219   C749.182068,128.734100 749.786072,135.093597 749.786072,141.625671   C729.055298,141.625671 708.810425,141.625671 687.989380,141.625671   C687.989380,135.639938 688.005798,129.701706 687.984863,123.763603   C687.963684,117.769821 684.708557,113.859177 677.720459,111.364685   C672.600830,109.537170 664.346558,110.933395 661.974121,114.620018   C660.738098,116.540642 660.339722,119.286453 660.326965,121.663612   C660.208862,143.825790 660.256775,165.988846 660.256592,188.151657   C660.256592,189.948380 660.256592,191.745087 660.256592,193.757294   C638.826172,193.757294 617.751709,193.757294 596.213928,193.757294   C596.213928,192.098923 596.213867,190.645340 596.213928,189.191772   C596.213989,166.695694 596.203308,144.199585 596.219055,121.703522   C596.227112,110.139404 606.294067,95.717415 617.158997,91.962212   C619.296387,91.223465 621.717346,91.061707 624.009338,91.052353   C641.505981,90.980858 659.003052,91.013138 677.000000,91.013138  z" data-index="8" style="opacity: 1; visibility: visible; fill: rgb(18, 18, 18);"/>
<path class="hero-path" d=" M411.000000,91.004616   C420.990814,91.004646 430.485901,91.177940 439.971039,90.946297   C446.760315,90.780495 452.015228,93.456665 455.770050,98.812210   C462.934723,109.031303 466.714752,120.351234 463.045380,132.687775   C460.613098,140.865112 456.921204,148.714890 453.271240,156.465500   C451.028564,161.227753 446.652893,162.887131 441.262390,162.844193   C419.456818,162.670532 397.649017,162.772125 375.292267,162.772125   C375.292267,173.136719 375.292267,183.337509 375.292267,193.749420   C353.699829,193.749420 332.657867,193.749420 311.407043,193.749420   C311.407043,159.593155 311.407043,125.681870 311.407043,91.004616   C344.414398,91.004616 377.457184,91.004616 411.000000,91.004616  M391.171844,118.982178   C386.401001,118.982178 381.630188,118.982178 376.707642,118.982178   C376.707642,125.592545 376.707642,131.682663 376.707642,139.076721   C383.031281,138.427734 389.121582,138.244461 395.011536,137.062637   C399.991974,136.063309 400.554565,131.746674 399.654663,127.512604   C398.773132,123.365173 398.279785,118.543610 391.171844,118.982178  z" data-index="9" style="opacity: 1; visibility: visible; fill: rgb(18, 18, 18);"/>
<path class="hero-path" d=" M784.524719,122.449051   C775.385254,122.108719 766.582275,122.108719 757.490723,122.108719   C757.490723,111.638878 757.490723,101.582016 757.490723,91.264221   C796.634766,91.264221 835.675293,91.264221 874.919373,91.264221   C874.919373,101.364258 874.919373,111.308525 874.919373,121.872116   C866.026184,121.872116 856.987732,121.872116 847.691467,121.872116   C847.691467,146.089294 847.691467,169.690323 847.691467,193.641937   C826.728088,193.641937 806.040588,193.641937 784.861267,193.641937   C784.861267,169.992081 784.861267,146.390732 784.524719,122.449051  z" data-index="10" style="opacity: 1; visibility: visible; fill: rgb(18, 18, 18);"/>
<path class="hero-path" d=" M263.006378,165.001419   C276.821625,165.001419 290.138489,165.001419 303.791199,165.001419   C303.791199,174.577637 303.791199,183.976883 303.791199,193.688904   C264.888428,193.688904 225.820831,193.688904 186.473450,193.688904   C186.473450,159.609543 186.473450,125.549065 186.473450,91.244728   C207.208206,91.244728 227.802734,91.244728 248.811035,91.244728   C248.811035,115.608932 248.811035,140.014435 248.811035,165.001419   C253.638763,165.001419 258.073364,165.001419 263.006378,165.001419  z" data-index="11" style="opacity: 1; visibility: visible; fill: rgb(18, 18, 18);"/>
<path class="hero-path" d=" M391.624817,118.982208   C398.279785,118.543610 398.773132,123.365173 399.654663,127.512604   C400.554565,131.746674 399.991974,136.063309 395.011536,137.062637   C389.121582,138.244461 383.031281,138.427734 376.707642,139.076721   C376.707642,131.682663 376.707642,125.592545 376.707642,118.982178   C381.630188,118.982178 386.401001,118.982178 391.624817,118.982208  M388.145203,135.980438   C388.804688,135.955978 389.504150,136.066666 390.117218,135.885269   C394.277832,134.654251 398.551208,133.304062 396.922241,127.533272   C395.702728,123.212959 396.152802,120.724861 387.664276,121.005150   C384.898499,121.096474 382.127197,121.019485 379.221100,121.019485   C379.221100,126.169113 379.221100,130.883469 379.221100,135.980515   C382.021149,135.980515 384.626404,135.980515 388.145203,135.980438  z" data-index="12" style="opacity: 1;"/>

</svg>